<svg width="46" height="45" viewBox="0 0 46 45" fill="none" xmlns="http://www.w3.org/2000/svg">
<g clip-path="url(#clip0_7322_4163)">
<path d="M14.7495 0H31.2026C32.0288 0.0703125 32.8286 0.439453 33.3823 1.05469C33.9536 1.66992 34.27 2.50488 34.2612 3.34863C34.2612 5.98535 34.2612 8.62207 34.2612 11.2588C34.2612 11.7334 34.2612 12.2256 34.1118 12.6826C33.7338 13.9922 32.4682 14.9766 31.0971 15.0117C29.7085 15.0205 28.3198 15.0117 26.9311 15.0117C25.9643 16.1016 25.0151 17.2002 24.0483 18.29C23.5122 18.9316 22.4311 18.9141 21.9213 18.2549C21.104 17.1826 20.2954 16.0928 19.4868 15.0117C17.9663 15.0029 16.437 15.0205 14.9077 15.0029C13.5454 14.9678 12.2797 13.9922 11.893 12.6826C11.7524 12.252 11.7436 11.7949 11.7524 11.3467C11.7524 8.64844 11.7524 5.95898 11.7524 3.26074C11.7524 2.36426 12.1479 1.48535 12.8071 0.878906C13.3344 0.37793 14.0288 0.0878906 14.7495 0Z" fill="black"/>
<path d="M0.693359 4.05176C1.12402 2.82129 2.35449 1.90723 3.66406 1.88086C5.4834 1.87207 7.30273 1.88086 9.11328 1.87207C8.99902 2.35547 8.92871 2.84766 8.9375 3.33984C8.9375 6.17871 8.92871 9.02637 8.94629 11.8652C8.97266 13.9131 10.1416 15.8555 11.8643 16.9365C10.915 18.0264 9.96582 19.1162 9.00781 20.1973C8.48047 20.8125 7.43457 20.751 6.93359 20.127C6.10742 19.0547 5.29883 17.9561 4.47266 16.875C3.75195 16.9014 2.99609 16.8838 2.33691 16.5322C1.31738 16.04 0.623047 15.0029 0.5 13.8779V4.88672C0.543945 4.60547 0.59668 4.32422 0.693359 4.05176Z" fill="#96F413"/>
<path d="M36.877 1.87207C38.6699 1.87207 40.4541 1.87207 42.2471 1.87207C43.2402 1.87207 44.207 2.36426 44.8047 3.15527C45.209 3.67383 45.4375 4.31543 45.4902 4.96582V13.8516C45.3672 15.126 44.4883 16.2861 43.2666 16.6904C42.6953 16.9014 42.0801 16.8662 41.4824 16.875C40.709 17.9297 39.918 18.9668 39.1357 20.0215C38.7842 20.5225 38.0898 20.7598 37.5098 20.54C37.1318 20.4258 36.8945 20.0918 36.6484 19.8105C35.8047 18.8525 34.9609 17.8857 34.1172 16.9277C35.4883 16.0664 36.5166 14.6689 36.877 13.0869C37.0791 12.2783 37.0352 11.4434 37.0352 10.626C37.0352 8.2002 37.0352 5.76562 37.0352 3.33984C37.0615 2.84766 37 2.35547 36.877 1.87207Z" fill="#96F413"/>
<path d="M22.5837 21.5771C23.7 21.498 24.8337 21.7529 25.8005 22.3154C27.1365 23.0888 28.1296 24.4247 28.4724 25.9277C28.7273 27.0263 28.6394 28.1952 28.2263 29.2411C27.6462 30.7353 26.3894 31.957 24.8689 32.4931C23.9021 32.8359 22.8386 32.9062 21.8367 32.6952C20.3162 32.3788 18.9451 31.3945 18.1541 30.0585C17.5564 29.0566 17.2839 27.8701 17.3894 26.7099C17.4949 25.3915 18.0837 24.1259 19.033 23.2031C19.9734 22.2538 21.2566 21.665 22.5837 21.5771Z" fill="black"/>
<path d="M7.64482 24.3898C8.73467 24.2844 9.85967 24.6799 10.6331 25.4533C11.4065 26.2092 11.8196 27.3078 11.7405 28.3889C11.679 29.3732 11.1956 30.3137 10.4573 30.9553C9.64873 31.6672 8.51494 31.9924 7.45146 31.8254C6.36162 31.676 5.35967 30.9992 4.79717 30.0588C4.23467 29.1447 4.10283 27.9758 4.4456 26.9563C4.87627 25.5676 6.19463 24.5129 7.64482 24.3898Z" fill="black"/>
<path d="M37.6243 24.3984C38.635 24.3017 39.6721 24.6181 40.4368 25.2861C41.2542 25.9804 41.7463 27.0527 41.7463 28.1338C41.7551 29.2588 41.219 30.3662 40.3401 31.0605C39.5051 31.7373 38.3713 32.0185 37.3167 31.8164C36.2532 31.623 35.2864 30.9463 34.7503 30.0058C34.2141 29.083 34.0999 27.9316 34.4514 26.9297C34.8997 25.5586 36.1917 24.5215 37.6243 24.3984Z" fill="black"/>
<path d="M2.57422 34.7785C3.46191 34.1105 4.57812 33.7414 5.68555 33.7502C7.24121 33.7502 8.78809 33.7502 10.3438 33.7502C11.2754 33.7502 12.207 34.0138 13.0068 34.4972C12.1191 35.1828 11.3633 36.0441 10.8271 37.0373C10.124 38.3205 9.8252 39.797 9.87793 41.2472C7.22363 41.2472 4.56934 41.2472 1.90625 41.2472C1.21191 41.256 0.59668 40.6847 0.5 40.008V38.6281C0.587891 37.1252 1.35254 35.675 2.57422 34.7785Z" fill="black"/>
<path d="M32.9922 34.4972C33.792 34.0138 34.7236 33.7501 35.6553 33.7501C37.2109 33.7501 38.7578 33.7501 40.3047 33.7501C41.667 33.7413 43.0293 34.295 43.9873 35.2618C44.8838 36.1495 45.4199 37.38 45.499 38.628V39.9903C45.4287 40.4474 45.1562 40.8692 44.7432 41.089C44.3916 41.2999 43.9609 41.2472 43.5654 41.256C41.0869 41.256 38.6084 41.256 36.1299 41.256C36.1387 40.5089 36.1035 39.7618 35.9277 39.0323C35.5234 37.2306 34.46 35.6046 32.9922 34.4972Z" fill="black"/>
<path d="M16.2493 35.8768C17.1809 35.5428 18.1741 35.6307 19.1409 35.6219C22.1292 35.6219 25.1174 35.6219 28.1057 35.6219C29.1868 35.6132 30.2678 35.9471 31.1467 36.58C32.1663 37.3007 32.9045 38.4081 33.177 39.6298C33.3616 40.3768 33.3 41.1503 33.3088 41.9149C33.3 42.5038 33.3176 43.0839 33.3 43.6727C33.2825 44.3407 32.72 44.9032 32.0696 44.9911H13.9465C13.261 44.9032 12.6721 44.288 12.6897 43.5848C12.6897 42.5565 12.6809 41.537 12.6985 40.5087C12.7776 38.4344 14.2629 36.5009 16.2493 35.8768Z" fill="black"/>
</g>
<defs>
<clipPath id="clip0_7322_4163">
<rect width="45" height="45" fill="white" transform="translate(0.5)"/>
</clipPath>
</defs>
</svg>
