<svg width="35" height="45" viewBox="0 0 35 45" fill="none" xmlns="http://www.w3.org/2000/svg">
<g clip-path="url(#clip0_7322_4154)">
<path d="M1.64355 0H25.6816C26.332 0.0703125 26.877 0.650391 26.8682 1.30957C26.877 12.6211 26.8682 23.9326 26.8682 35.2441C26.8594 35.6045 26.9121 36 26.7363 36.334C26.5166 36.8174 25.9893 37.1162 25.4619 37.0898C17.5781 37.0898 9.69434 37.0898 1.81055 37.0898C1.10742 37.0986 0.483398 36.4746 0.500977 35.7803C0.500977 24.4688 0.500977 13.1572 0.500977 1.8457C0.509766 1.47656 0.457031 1.08984 0.632813 0.74707C0.817383 0.351563 1.22168 0.0878906 1.64355 0ZM5.53711 6.70606C4.79883 6.8291 4.28027 7.65527 4.51758 8.37598C4.66699 8.9209 5.21191 9.3252 5.77441 9.31641C8.41113 9.31641 11.0479 9.31641 13.6846 9.31641C14.3877 9.33399 15.0117 8.70117 15.0029 7.99805C15.0205 7.29492 14.3877 6.66211 13.6846 6.67969C11.0742 6.67969 8.47266 6.67969 5.86231 6.67969C5.75684 6.67969 5.64258 6.68848 5.53711 6.70606ZM5.52832 11.9795C4.86035 12.0938 4.35938 12.7881 4.47363 13.4561C4.55273 14.0889 5.1416 14.5986 5.77441 14.5898C10.8984 14.5898 16.0313 14.5898 21.1553 14.5898C21.4717 14.5898 21.8057 14.6162 22.1045 14.4844C22.7109 14.2471 23.0625 13.5176 22.8604 12.9023C22.7109 12.3574 22.166 11.9531 21.5947 11.9619C16.4707 11.9619 11.3379 11.9619 6.21387 11.9619C5.98535 11.9531 5.75684 11.9443 5.52832 11.9795ZM5.52832 17.2529C4.76367 17.3848 4.24512 18.2637 4.53516 18.9844C4.71094 19.5029 5.22949 19.8633 5.77441 19.8633C11.0215 19.8633 16.2686 19.8633 21.5068 19.8633C21.9639 19.8809 22.4297 19.6611 22.6846 19.2832C22.9746 18.8701 22.9834 18.2988 22.7197 17.8682C22.4736 17.4463 21.9902 17.209 21.5068 17.2266C16.4355 17.2266 11.3643 17.2266 6.30176 17.2266C6.04688 17.2266 5.7832 17.209 5.52832 17.2529ZM5.52832 22.5264C4.86035 22.6406 4.35938 23.335 4.47363 24.0117C4.55273 24.6445 5.1416 25.1455 5.77441 25.1367C11.0215 25.1367 16.2598 25.1367 21.5068 25.1367C22.0342 25.1631 22.5615 24.8643 22.7813 24.3809C23.0361 23.8711 22.8955 23.2119 22.4736 22.8428C22.1924 22.5791 21.7969 22.4736 21.4189 22.5C16.3828 22.5 11.3379 22.5 6.30176 22.5C6.04688 22.5 5.7832 22.4824 5.52832 22.5264ZM16.0752 27.7998C15.4072 27.9141 14.9063 28.6084 15.0205 29.2764C15.0996 29.9092 15.6885 30.4189 16.3301 30.4102C18.0527 30.4102 19.7842 30.4102 21.5068 30.4102C22.2451 30.4629 22.9307 29.8301 22.9219 29.0918C22.9307 28.3975 22.3154 27.7647 21.6123 27.7734C19.9072 27.7734 18.2109 27.7734 16.5059 27.7734C16.3564 27.7734 16.2158 27.7734 16.0752 27.7998Z" fill="black"/>
<path d="M29.5029 7.99814C30.8213 7.99814 32.1484 7.99814 33.4668 7.99814C34.1611 7.98935 34.7852 8.61337 34.7764 9.30771C34.7852 20.7423 34.7764 32.1681 34.7764 43.6026C34.8203 44.2882 34.2754 44.921 33.5986 45.0001H9.60449C8.9541 44.9298 8.40918 44.3497 8.41797 43.6905C8.40918 42.3722 8.41797 41.0538 8.41797 39.7267C14.043 39.7267 19.668 39.7267 25.293 39.7267C25.8818 39.7354 26.4795 39.6651 27.0244 39.4366C28.4922 38.8653 29.5293 37.3448 29.5117 35.7628C29.5117 26.5079 29.5029 17.253 29.5029 7.99814Z" fill="#96F413"/>
</g>
<defs>
<clipPath id="clip0_7322_4154">
<rect width="34.2861" height="45" fill="white" transform="translate(0.5)"/>
</clipPath>
</defs>
</svg>
