<svg width="49" height="45" viewBox="0 0 49 45" fill="none" xmlns="http://www.w3.org/2000/svg">
<g clip-path="url(#clip0_7322_4178)">
<path d="M24.1024 0.0562002C24.9264 -0.196609 25.844 0.477549 25.8721 1.33897C25.8814 2.90264 25.8721 4.46631 25.8721 6.03935C25.8908 6.68541 25.3945 7.30339 24.7578 7.42511C23.9526 7.62174 23.0912 6.95695 23.0724 6.13298C23.0631 4.56931 23.0724 3.00564 23.0631 1.44197C23.0443 0.805264 23.4938 0.215376 24.1024 0.0562002Z" fill="#96F413"/>
<path d="M13.8133 3.3335C14.2908 3.20241 14.8339 3.35223 15.1803 3.70803C16.3976 4.92526 17.6148 6.14249 18.832 7.35035C19.2159 7.6968 19.4125 8.23987 19.2908 8.74549C19.1785 9.28856 18.7103 9.71927 18.1672 9.8129C17.7271 9.88781 17.259 9.74736 16.9406 9.43837C15.7047 8.20241 14.4781 6.96646 13.2421 5.73987C12.9144 5.43088 12.7271 4.97208 12.7833 4.52264C12.8395 3.96084 13.2609 3.46459 13.8133 3.3335Z" fill="#96F413"/>
<path d="M34.407 3.33318C35.0156 3.16464 35.7272 3.4549 36.0081 4.03543C36.2984 4.56913 36.186 5.27138 35.7459 5.69273C34.5006 6.93805 33.2553 8.19273 32.0006 9.43805C31.495 9.94367 30.6149 9.97176 30.0905 9.48487C29.5006 8.98861 29.4632 7.9961 30.025 7.45303C31.2703 6.20771 32.5156 4.96239 33.7609 3.70771C33.9388 3.52981 34.1636 3.39872 34.407 3.33318Z" fill="#96F413"/>
<path d="M14.0768 14.5691C15.4625 13.4174 17.2416 12.7714 19.0393 12.762C21.8202 12.762 24.6011 12.762 27.3727 12.762C28.5431 12.7245 29.7228 13.0148 30.706 13.6609C31.2678 14.0167 31.736 14.5036 32.2041 14.9717C33.7303 16.4979 35.2659 18.0335 36.7921 19.5597C37.1573 19.9156 37.5225 20.2994 37.7285 20.777C38.3371 22.0504 37.9625 23.7077 36.8483 24.5785C35.6498 25.5803 33.7303 25.468 32.6255 24.3912C31.2865 23.071 29.9757 21.732 28.6461 20.4118C28.3652 20.1309 27.9719 19.9811 27.5787 19.9811C24.0487 19.9717 20.5187 19.9811 16.9888 19.9811C15.4625 21.2639 13.9363 22.5466 12.4007 23.8294C11.8296 24.3163 11.2303 24.7657 10.7715 25.365C9.46067 27.0129 9.14232 29.3818 9.95693 31.32C10.603 32.9118 11.9794 34.1759 13.6086 34.7096C13.7491 35.5616 14.0487 36.3856 14.5075 37.1159C13.7772 37.0691 12.9064 37.3032 12.3071 36.7508C11.1648 35.6365 10.0506 34.4942 8.9176 33.3706C6.76405 33.3612 4.61985 33.3706 2.46629 33.3706C2.0824 33.3706 1.67041 33.4081 1.30524 33.2302C0.865169 33.0148 0.58427 32.5841 0.5 32.1159V16.8163C0.58427 16.1234 1.20225 15.5523 1.90449 15.5616C5.61236 15.5616 9.32022 15.5616 13.0281 15.5616C13.3652 15.2245 13.7022 14.8781 14.0768 14.5691Z" fill="black"/>
<path d="M39.6016 18.4736C42.0828 18.4736 44.5547 18.4736 47.036 18.4736C47.7195 18.4549 48.3094 19.0073 48.4405 19.6721V35.0186C48.3469 35.7021 47.7383 36.2732 47.0454 36.2639C45.1727 36.2732 43.3001 36.2639 41.4274 36.2639C41.2401 36.2732 41.0061 36.2171 40.8656 36.3762C37.7476 38.998 34.6203 41.6103 31.5023 44.232C30.7345 44.8968 29.6484 45.159 28.6652 44.9062C27.4574 44.6159 26.4929 43.5672 26.315 42.3406C26.1465 41.395 26.4836 40.4118 27.1016 39.6908C26.4836 40.1777 25.8937 40.7021 25.2851 41.1983C24.5828 41.8069 23.609 42.0785 22.7008 41.9193C21.4742 41.732 20.4349 40.7489 20.154 39.5504C19.8825 38.483 20.2289 37.3032 21.0154 36.5448C20.3319 36.9942 19.4892 37.2283 18.6652 37.0878C17.3918 36.9006 16.3057 35.8612 16.0622 34.5878C15.8469 33.5391 16.212 32.4062 16.9798 31.6759C16.1746 32.2377 15.1259 32.453 14.1802 32.1534C12.9162 31.7882 11.9705 30.571 11.933 29.2601C11.8862 28.277 12.3356 27.2938 13.1034 26.6759C14.6577 25.3931 16.1746 24.0729 17.7383 22.8088C20.8469 22.7994 23.9555 22.7994 27.0641 22.8088C28.0379 23.8013 29.0304 24.7845 30.0135 25.7676C30.4255 26.1702 30.8094 26.6009 31.2776 26.938C32.3544 27.7433 33.712 28.1553 35.0604 28.0991C36.3338 28.0616 37.5791 27.5935 38.5716 26.7976C39.7701 25.8425 40.5847 24.4006 40.772 22.8744C40.978 21.32 40.5379 19.7189 39.6016 18.4736Z" fill="black"/>
</g>
<defs>
<clipPath id="clip0_7322_4178">
<rect width="47.9401" height="45" fill="white" transform="translate(0.5)"/>
</clipPath>
</defs>
</svg>
