<svg width="50" height="41" viewBox="0 0 50 41" fill="none" xmlns="http://www.w3.org/2000/svg">
<path d="M23.8542 0.080234C25.4784 -0.146394 27.1687 0.108562 28.6418 0.826217C30.6059 1.76106 32.1734 3.48909 32.9099 5.53818C33.8447 8.06886 33.4387 11.0622 31.8429 13.2435C30.4264 15.2737 28.0563 16.6052 25.5823 16.7468C23.1177 16.9357 20.6059 15.9347 18.9251 14.1312C17.8297 12.9791 17.0743 11.506 16.791 9.93854C16.3944 7.91778 16.791 5.75537 17.8769 4.00845C19.1612 1.89326 21.4086 0.40129 23.8542 0.080234Z" fill="#96F413"/>
<path d="M9.46323 7.8708C10.8702 7.68194 12.3433 7.99355 13.5614 8.73954C14.7229 9.44775 15.6388 10.5431 16.1393 11.8179C16.6681 13.1682 16.7059 14.698 16.2432 16.0672C15.6105 18.0029 13.9675 19.5705 12.0033 20.1276C10.5208 20.5525 8.87777 20.4014 7.49912 19.7121C6.14879 19.0417 5.06287 17.8707 4.4963 16.4827C3.94862 15.1701 3.87307 13.6592 4.28856 12.2995C4.94956 9.9671 7.06475 8.15408 9.46323 7.8708Z" fill="black"/>
<path d="M39.0105 7.86104C40.3702 7.70051 41.7867 7.9838 42.967 8.69201C44.1568 9.40022 45.1105 10.5145 45.611 11.8081C46.187 13.2718 46.187 14.9526 45.5921 16.4068C45.035 17.8327 43.9302 19.0225 42.561 19.7023C41.56 20.2123 40.408 20.42 39.2938 20.3445C37.3108 20.2123 35.4411 19.0413 34.4213 17.3416C33.0804 15.2453 33.222 12.3464 34.7234 10.3728C35.7244 8.98474 37.3108 8.05934 39.0105 7.86104Z" fill="black"/>
<path d="M20.0285 18.5315C20.68 18.4749 21.341 18.4937 21.9926 18.4937C24.4194 18.4937 26.8368 18.4937 29.2636 18.4937C30.9444 18.4843 32.6158 19.1075 33.8811 20.2218C35.0709 21.2605 35.9019 22.7052 36.1568 24.2633C36.2985 25.0093 36.2607 25.7742 36.2701 26.539C36.2701 30.8827 36.2701 35.217 36.2701 39.5607C36.289 40.0989 35.968 40.6372 35.4675 40.8638C35.1276 41.0338 34.731 40.996 34.3627 41.0054C27.9699 41.0054 21.5865 41.0054 15.1938 41.0054C14.4194 41.0432 13.7207 40.3444 13.7679 39.5701C13.7679 34.8865 13.7679 30.1934 13.7679 25.5098C13.7679 23.9895 14.2684 22.4692 15.1938 21.2605C16.3458 19.7308 18.1399 18.7204 20.0285 18.5315Z" fill="#96F413"/>
<path d="M3.11784 23.9801C4.34541 22.8375 5.98846 22.1765 7.65984 22.1388C8.96295 22.1199 10.2661 22.1293 11.5692 22.1293C11.1537 23.3002 10.9648 24.5372 10.9743 25.7837C10.9743 29.9102 10.9743 34.0273 10.9743 38.1538C10.9837 39.1075 10.8987 40.0801 11.2103 40.9961C9.57673 40.9961 7.95256 40.9961 6.31896 40.9961C5.62963 40.9866 4.9403 41.0244 4.25098 40.9111C3.46722 40.76 2.74013 40.3917 2.15467 39.844C1.35203 39.0886 0.898777 37.9933 0.851562 36.879V28.9376C0.908219 27.0679 1.72974 25.236 3.11784 23.9801Z" fill="black"/>
<path d="M38.4844 22.1292C39.6364 22.1198 40.7884 22.1292 41.931 22.1292C42.6298 22.1292 43.338 22.1859 44.0084 22.3653C45.5287 22.7619 46.8979 23.7061 47.8328 24.9715C48.6826 26.1141 49.1548 27.5116 49.1925 28.9375V36.8789C49.1453 37.5116 49.0226 38.1537 48.7204 38.7202C48.1349 39.8723 46.9829 40.7221 45.7081 40.9299C45.0471 41.0337 44.3861 40.996 43.7157 41.0054C42.0821 41.0054 40.4579 41.0054 38.8243 41.0054C38.9848 40.486 39.0698 39.9384 39.0604 39.3907C39.0604 34.792 39.0604 30.1934 39.0604 25.6042C39.0793 24.4144 38.8715 23.2434 38.4844 22.1292Z" fill="black"/>
</svg>
